<?xml version="1.0" encoding="UTF-8"?>
<svg xmlns="http://www.w3.org/2000/svg" viewBox="0 0 380 160" width="380" height="160">
  <title>Surfworks Logo Full - Dark Mode</title>

  <defs>
    <style>
      .blade { fill: none; stroke: #E0E0E0; stroke-width: 2.8; stroke-linejoin: round; }
      .main { fill: #E0E0E0; }
      .eye-white { fill: #5BA4C9; }
      .pupil { fill: #1B2838; }
      .text {
        font-family: 'VAG Rounded Std', 'Nunito', 'Arial Rounded MT Bold', sans-serif;
        font-weight: 400;
        fill: #E0E0E0;
      }
    </style>
  </defs>

  <!-- Wavy circular border (saw blade) -->
  <path class="blade" d="M142.0,80.0 L147.6,83.0 L149.7,86.1 L147.1,88.8 L141.1,90.8 L135.0,92.2 L132.2,94.0 L133.7,96.9 L138.3,101.2 L142.5,105.9 L143.4,109.6 L140.0,111.2 L133.7,111.0 L127.5,110.3 L124.2,111.0 L124.7,114.3 L127.5,119.9 L129.9,125.7 L129.5,129.5 L125.7,129.9 L119.9,127.5 L114.3,124.7 L111.0,124.2 L110.3,127.5 L111.0,133.7 L111.2,140.0 L109.6,143.4 L105.9,142.5 L101.2,138.3 L96.9,133.7 L94.0,132.2 L92.2,135.0 L90.8,141.1 L88.8,147.1 L86.1,149.7 L83.0,147.6 L80.0,142.0 L77.5,136.3 L75.3,133.8 L72.6,135.9 L69.2,141.1 L65.4,146.1 L61.9,147.6 L59.7,144.5 L58.8,138.3 L58.4,132.1 L57.2,128.9 L54.0,130.0 L49.0,133.7 L43.6,137.1 L39.8,137.3 L38.8,133.7 L40.1,127.5 L41.9,121.5 L41.8,118.2 L38.5,118.1 L32.5,119.9 L26.3,121.2 L22.7,120.2 L22.9,116.4 L26.3,111.0 L30.0,106.0 L31.1,102.8 L27.9,101.6 L21.7,101.2 L15.5,100.3 L12.4,98.1 L13.9,94.6 L18.9,90.8 L24.1,87.4 L26.2,84.7 L23.7,82.5 L18.0,80.0 L12.4,77.0 L10.3,73.9 L12.9,71.2 L18.9,69.2 L25.0,67.8 L27.8,66.0 L26.3,63.1 L21.7,58.8 L17.5,54.1 L16.6,50.4 L20.0,48.8 L26.3,49.0 L32.5,49.7 L35.8,49.0 L35.3,45.7 L32.5,40.1 L30.1,34.3 L30.5,30.5 L34.3,30.1 L40.1,32.5 L45.7,35.3 L49.0,35.8 L49.7,32.5 L49.0,26.3 L48.8,20.0 L50.4,16.6 L54.1,17.5 L58.8,21.7 L63.1,26.3 L66.0,27.8 L67.8,25.0 L69.2,18.9 L71.2,12.9 L73.9,10.3 L77.0,12.4 L80.0,18.0 L82.5,23.7 L84.7,26.2 L87.4,24.1 L90.8,18.9 L94.6,13.9 L98.1,12.4 L100.3,15.5 L101.2,21.7 L101.6,27.9 L102.8,31.1 L106.0,30.0 L111.0,26.3 L116.4,22.9 L120.2,22.7 L121.2,26.3 L119.9,32.5 L118.1,38.5 L118.2,41.8 L121.5,41.9 L127.5,40.1 L133.7,38.8 L137.3,39.8 L137.1,43.6 L133.7,49.0 L130.0,54.0 L128.9,57.2 L132.1,58.4 L138.3,58.8 L144.5,59.7 L147.6,61.9 L146.1,65.4 L141.1,69.2 L135.9,72.6 L133.8,75.3 L136.3,77.5 Z"/>

  <!-- Crescent moon -->
  <path class="main" d="
    M 44,80
    C 44,52 62,32 88,32
    C 56,40 44,58 44,80
    C 44,102 56,120 88,128
    C 62,128 44,108 44,80
    Z"/>

  <!-- Arc on right side -->
  <path class="main" d="
    M 88,32
    C 120,32 132,52 132,80
    C 132,108 120,128 88,128
    C 112,120 122,102 122,80
    C 122,58 112,40 88,32
    Z"/>

  <!-- Eye white - almond shaped -->
  <path class="eye-white" d="
    M 56,80
    C 56,58 72,44 92,44
    C 112,44 124,58 124,80
    C 124,102 112,116 92,116
    C 72,116 56,102 56,80
    Z"/>

  <!-- Inner crescent -->
  <path class="main" d="
    M 56,80
    C 56,56 71,42 92,42
    C 74,48 64,62 64,80
    C 64,98 74,112 92,118
    C 71,118 56,104 56,80
    Z"/>

  <!-- Pupil -->
  <ellipse class="pupil" cx="100" cy="80" rx="14" ry="22"/>

  <!-- Highlight -->
  <ellipse cx="106" cy="72" rx="4" ry="5" fill="white" opacity="0.4"/>

  <!-- Text: surfworks -->
  <text x="160" y="95" class="text" font-size="42">surfworks</text>
</svg>