<?xml version="1.0" encoding="UTF-8"?>
<svg xmlns="http://www.w3.org/2000/svg" viewBox="0 0 200 200" width="200" height="200">
  <title>Surfworks Logo - Dark Mode</title>

  <defs>
    <style>
      .blade { fill: none; stroke: #E0E0E0; stroke-width: 3.5; stroke-linejoin: round; }
      .main { fill: #E0E0E0; }
      .eye-white { fill: #5BA4C9; }
      .pupil { fill: #1B2838; }
    </style>
  </defs>

  <!-- Wavy circular border (saw blade) -->
  <path class="blade" d="M178.0,100.0 L185.0,103.7 L187.7,107.7 L184.3,111.1 L176.8,113.5 L169.2,115.4 L165.7,117.6 L167.6,121.3 L173.3,126.7 L178.6,132.6 L179.8,137.2 L175.5,139.3 L167.5,139.0 L159.8,138.1 L155.7,139.0 L156.3,143.2 L159.8,150.1 L162.7,157.5 L162.2,162.2 L157.5,162.7 L150.1,159.8 L143.2,156.3 L139.0,155.7 L138.1,159.8 L139.0,167.5 L139.3,175.5 L137.2,179.8 L132.6,178.6 L126.7,173.3 L121.3,167.6 L117.6,165.7 L115.4,169.2 L113.5,176.8 L111.1,184.3 L107.7,187.7 L103.7,185.0 L100.0,178.0 L96.9,170.9 L94.1,167.7 L90.7,170.3 L86.5,176.8 L81.6,183.1 L77.2,185.0 L74.4,181.1 L73.3,173.3 L72.9,165.5 L71.3,161.6 L67.2,162.9 L61.0,167.5 L54.3,171.7 L49.5,172.1 L48.2,167.5 L49.9,159.8 L52.1,152.3 L51.9,148.1 L47.7,147.9 L40.2,150.1 L32.5,151.8 L27.9,150.5 L28.3,145.7 L32.5,139.0 L37.1,132.8 L38.4,128.7 L34.5,127.1 L26.7,126.7 L18.9,125.6 L15.0,122.8 L16.9,118.4 L23.2,113.5 L29.7,109.3 L32.3,105.9 L29.1,103.1 L22.0,100.0 L15.0,96.3 L12.3,92.3 L15.7,88.9 L23.2,86.5 L30.8,84.6 L34.3,82.4 L32.4,78.7 L26.7,73.3 L21.4,67.4 L20.2,62.8 L24.5,60.7 L32.5,61.0 L40.2,61.9 L44.3,61.0 L43.7,56.8 L40.2,49.9 L37.3,42.5 L37.8,37.8 L42.5,37.3 L49.9,40.2 L56.8,43.7 L61.0,44.3 L61.9,40.2 L61.0,32.5 L60.7,24.5 L62.8,20.2 L67.4,21.4 L73.3,26.7 L78.7,32.4 L82.4,34.3 L84.6,30.8 L86.5,23.2 L88.9,15.7 L92.3,12.3 L96.3,15.0 L100.0,22.0 L103.1,29.1 L105.9,32.3 L109.3,29.7 L113.5,23.2 L118.4,16.9 L122.8,15.0 L125.6,18.9 L126.7,26.7 L127.1,34.5 L128.7,38.4 L132.8,37.1 L139.0,32.5 L145.7,28.3 L150.5,27.9 L151.8,32.5 L150.1,40.2 L147.9,47.7 L148.1,51.9 L152.3,52.1 L159.8,49.9 L167.5,48.2 L172.1,49.5 L171.7,54.3 L167.5,61.0 L162.9,67.2 L161.6,71.3 L165.5,72.9 L173.3,73.3 L181.1,74.4 L185.0,77.2 L183.1,81.6 L176.8,86.5 L170.3,90.7 L167.7,94.1 L170.9,96.9 Z"/>

  <!-- Blue crescent moon - wraps around left side of eye -->
  <path class="main" d="
    M 55,100
    C 55,60 78,35 110,35
    C 70,45 55,70 55,100
    C 55,130 70,155 110,165
    C 78,165 55,140 55,100
    Z"/>

  <!-- Arc on right side -->
  <path class="main" d="
    M 110,35
    C 150,35 165,60 165,100
    C 165,140 150,165 110,165
    C 140,155 152,130 152,100
    C 152,70 140,45 110,35
    Z"/>

  <!-- Eye white - almond shaped -->
  <path class="eye-white" d="
    M 70,100
    C 70,70 90,50 115,50
    C 140,50 155,70 155,100
    C 155,130 140,150 115,150
    C 90,150 70,130 70,100
    Z"/>

  <!-- Inner crescent (overlaps white to create moon effect) -->
  <path class="main" d="
    M 70,100
    C 70,68 88,48 115,48
    C 92,55 80,75 80,100
    C 80,125 92,145 115,152
    C 88,152 70,132 70,100
    Z"/>

  <!-- Pupil - dark ellipse -->
  <ellipse class="pupil" cx="125" cy="100" rx="18" ry="28"/>

  <!-- Small highlight on pupil -->
  <ellipse cx="132" cy="90" rx="5" ry="6" fill="white" opacity="0.4"/>
</svg>